<mxfile host="app.diagrams.net" modified="2023-05-24T03:58:16.997Z" agent="Mozilla/5.0 (Windows NT 10.0; Win64; x64) AppleWebKit/537.36 (KHTML, like Gecko) Chrome/113.0.0.0 Safari/537.36 Edg/113.0.1774.50" version="21.3.3" etag="nS0A9OD1qbF3VvmVeGgR" type="device">
  <diagram id="s_JFpn_TGDh9vqcQdDsP" name="第 1 页">
    <mxGraphModel dx="1966" dy="701" grid="1" gridSize="10" guides="1" tooltips="1" connect="1" arrows="1" fold="1" page="1" pageScale="1" pageWidth="827" pageHeight="1169" math="0" shadow="0">
      <root>
        <mxCell id="0" />
        <mxCell id="1" parent="0" />
        <mxCell id="dTek0zVRktRmmqcboNKo-1" value="&lt;i&gt;Application&lt;/i&gt;" style="swimlane;fontStyle=1;align=center;verticalAlign=top;childLayout=stackLayout;horizontal=1;startSize=26;horizontalStack=0;resizeParent=1;resizeParentMax=0;resizeLast=0;collapsible=1;marginBottom=0;whiteSpace=wrap;html=1;" vertex="1" parent="1">
          <mxGeometry x="360" y="425" width="160" height="94" as="geometry" />
        </mxCell>
        <mxCell id="dTek0zVRktRmmqcboNKo-3" value="" style="line;strokeWidth=1;fillColor=none;align=left;verticalAlign=middle;spacingTop=-1;spacingLeft=3;spacingRight=3;rotatable=0;labelPosition=right;points=[];portConstraint=eastwest;strokeColor=inherit;" vertex="1" parent="dTek0zVRktRmmqcboNKo-1">
          <mxGeometry y="26" width="160" height="8" as="geometry" />
        </mxCell>
        <mxCell id="dTek0zVRktRmmqcboNKo-4" value="&lt;i&gt;+ CreateDocument()&lt;br&gt;+ NewDocument()&lt;br&gt;+ OpenDocument&lt;/i&gt;" style="text;strokeColor=none;fillColor=none;align=left;verticalAlign=top;spacingLeft=4;spacingRight=4;overflow=hidden;rotatable=0;points=[[0,0.5],[1,0.5]];portConstraint=eastwest;whiteSpace=wrap;html=1;" vertex="1" parent="dTek0zVRktRmmqcboNKo-1">
          <mxGeometry y="34" width="160" height="60" as="geometry" />
        </mxCell>
        <mxCell id="dTek0zVRktRmmqcboNKo-12" style="edgeStyle=none;rounded=0;orthogonalLoop=1;jettySize=auto;html=1;exitX=1;exitY=0.5;exitDx=0;exitDy=0;" edge="1" parent="dTek0zVRktRmmqcboNKo-1" source="dTek0zVRktRmmqcboNKo-4" target="dTek0zVRktRmmqcboNKo-4">
          <mxGeometry relative="1" as="geometry" />
        </mxCell>
        <mxCell id="dTek0zVRktRmmqcboNKo-5" value="Document" style="swimlane;fontStyle=1;align=center;verticalAlign=top;childLayout=stackLayout;horizontal=1;startSize=26;horizontalStack=0;resizeParent=1;resizeParentMax=0;resizeLast=0;collapsible=1;marginBottom=0;whiteSpace=wrap;html=1;" vertex="1" parent="1">
          <mxGeometry x="20" y="415" width="160" height="104" as="geometry" />
        </mxCell>
        <mxCell id="dTek0zVRktRmmqcboNKo-7" value="" style="line;strokeWidth=1;fillColor=none;align=left;verticalAlign=middle;spacingTop=-1;spacingLeft=3;spacingRight=3;rotatable=0;labelPosition=right;points=[];portConstraint=eastwest;strokeColor=inherit;" vertex="1" parent="dTek0zVRktRmmqcboNKo-5">
          <mxGeometry y="26" width="160" height="8" as="geometry" />
        </mxCell>
        <mxCell id="dTek0zVRktRmmqcboNKo-8" value="+ Open()&lt;br&gt;+ Close()&lt;br&gt;+ Save()&lt;br&gt;+ Revert()&lt;br&gt;" style="text;strokeColor=none;fillColor=none;align=left;verticalAlign=top;spacingLeft=4;spacingRight=4;overflow=hidden;rotatable=0;points=[[0,0.5],[1,0.5]];portConstraint=eastwest;whiteSpace=wrap;html=1;" vertex="1" parent="dTek0zVRktRmmqcboNKo-5">
          <mxGeometry y="34" width="160" height="70" as="geometry" />
        </mxCell>
        <mxCell id="dTek0zVRktRmmqcboNKo-9" value="1" style="endArrow=open;html=1;endSize=12;startArrow=diamondThin;startSize=14;startFill=0;align=left;verticalAlign=bottom;rounded=0;exitX=-0.027;exitY=0.006;exitDx=0;exitDy=0;exitPerimeter=0;entryX=1.01;entryY=0.133;entryDx=0;entryDy=0;entryPerimeter=0;" edge="1" parent="1" source="dTek0zVRktRmmqcboNKo-4" target="dTek0zVRktRmmqcboNKo-8">
          <mxGeometry x="-1" y="3" relative="1" as="geometry">
            <mxPoint x="330" y="580" as="sourcePoint" />
            <mxPoint x="490" y="580" as="targetPoint" />
          </mxGeometry>
        </mxCell>
        <mxCell id="dTek0zVRktRmmqcboNKo-10" value="docs&lt;br&gt;" style="edgeLabel;html=1;align=center;verticalAlign=middle;resizable=0;points=[];" vertex="1" connectable="0" parent="dTek0zVRktRmmqcboNKo-9">
          <mxGeometry x="-0.6123" y="-3" relative="1" as="geometry">
            <mxPoint as="offset" />
          </mxGeometry>
        </mxCell>
        <mxCell id="dTek0zVRktRmmqcboNKo-11" value="" style="endArrow=block;dashed=1;endFill=0;endSize=12;html=1;rounded=0;entryX=0;entryY=0.5;entryDx=0;entryDy=0;" edge="1" parent="1" source="dTek0zVRktRmmqcboNKo-4" target="dTek0zVRktRmmqcboNKo-14">
          <mxGeometry width="160" relative="1" as="geometry">
            <mxPoint x="430" y="640" as="sourcePoint" />
            <mxPoint x="640" y="513.4482758620688" as="targetPoint" />
          </mxGeometry>
        </mxCell>
        <mxCell id="dTek0zVRktRmmqcboNKo-14" value="Document *doc = CreateDocument();&lt;br&gt;docs.add(doc);&lt;br&gt;doc-&amp;gt;open();" style="html=1;whiteSpace=wrap;" vertex="1" parent="1">
          <mxGeometry x="690" y="454" width="110" height="70" as="geometry" />
        </mxCell>
        <mxCell id="dTek0zVRktRmmqcboNKo-15" value="MyApplication" style="swimlane;fontStyle=1;align=center;verticalAlign=top;childLayout=stackLayout;horizontal=1;startSize=26;horizontalStack=0;resizeParent=1;resizeParentMax=0;resizeLast=0;collapsible=1;marginBottom=0;whiteSpace=wrap;html=1;" vertex="1" parent="1">
          <mxGeometry x="360" y="650" width="160" height="60" as="geometry" />
        </mxCell>
        <mxCell id="dTek0zVRktRmmqcboNKo-17" value="" style="line;strokeWidth=1;fillColor=none;align=left;verticalAlign=middle;spacingTop=-1;spacingLeft=3;spacingRight=3;rotatable=0;labelPosition=right;points=[];portConstraint=eastwest;strokeColor=inherit;" vertex="1" parent="dTek0zVRktRmmqcboNKo-15">
          <mxGeometry y="26" width="160" height="8" as="geometry" />
        </mxCell>
        <mxCell id="dTek0zVRktRmmqcboNKo-18" value="+ CreateDocument()" style="text;strokeColor=none;fillColor=none;align=left;verticalAlign=top;spacingLeft=4;spacingRight=4;overflow=hidden;rotatable=0;points=[[0,0.5],[1,0.5]];portConstraint=eastwest;whiteSpace=wrap;html=1;" vertex="1" parent="dTek0zVRktRmmqcboNKo-15">
          <mxGeometry y="34" width="160" height="26" as="geometry" />
        </mxCell>
        <mxCell id="dTek0zVRktRmmqcboNKo-19" value="return new MyDocument()l" style="html=1;whiteSpace=wrap;" vertex="1" parent="1">
          <mxGeometry x="640" y="672" width="110" height="50" as="geometry" />
        </mxCell>
        <mxCell id="dTek0zVRktRmmqcboNKo-20" value="" style="endArrow=block;dashed=1;endFill=0;endSize=12;html=1;rounded=0;entryX=0;entryY=0.5;entryDx=0;entryDy=0;exitX=1;exitY=0.5;exitDx=0;exitDy=0;" edge="1" parent="1" source="dTek0zVRktRmmqcboNKo-18" target="dTek0zVRktRmmqcboNKo-19">
          <mxGeometry width="160" relative="1" as="geometry">
            <mxPoint x="380" y="680" as="sourcePoint" />
            <mxPoint x="540" y="680" as="targetPoint" />
          </mxGeometry>
        </mxCell>
        <mxCell id="dTek0zVRktRmmqcboNKo-21" value="Extends" style="endArrow=block;endSize=16;endFill=0;html=1;rounded=0;entryX=0.49;entryY=0.994;entryDx=0;entryDy=0;entryPerimeter=0;exitX=0.5;exitY=0;exitDx=0;exitDy=0;" edge="1" parent="1" source="dTek0zVRktRmmqcboNKo-15" target="dTek0zVRktRmmqcboNKo-4">
          <mxGeometry width="160" relative="1" as="geometry">
            <mxPoint x="280" y="530" as="sourcePoint" />
            <mxPoint x="440" y="530" as="targetPoint" />
          </mxGeometry>
        </mxCell>
        <mxCell id="dTek0zVRktRmmqcboNKo-22" value="MyDocument" style="swimlane;fontStyle=1;align=center;verticalAlign=top;childLayout=stackLayout;horizontal=1;startSize=26;horizontalStack=0;resizeParent=1;resizeParentMax=0;resizeLast=0;collapsible=1;marginBottom=0;whiteSpace=wrap;html=1;" vertex="1" parent="1">
          <mxGeometry x="30" y="672" width="160" height="34" as="geometry" />
        </mxCell>
        <mxCell id="dTek0zVRktRmmqcboNKo-24" value="" style="line;strokeWidth=1;fillColor=none;align=left;verticalAlign=middle;spacingTop=-1;spacingLeft=3;spacingRight=3;rotatable=0;labelPosition=right;points=[];portConstraint=eastwest;strokeColor=inherit;" vertex="1" parent="dTek0zVRktRmmqcboNKo-22">
          <mxGeometry y="26" width="160" height="8" as="geometry" />
        </mxCell>
        <mxCell id="dTek0zVRktRmmqcboNKo-26" value="Extends" style="endArrow=block;endSize=16;endFill=0;html=1;rounded=0;exitX=0.448;exitY=0.016;exitDx=0;exitDy=0;exitPerimeter=0;" edge="1" parent="1" source="dTek0zVRktRmmqcboNKo-22">
          <mxGeometry width="160" relative="1" as="geometry">
            <mxPoint x="80" y="710" as="sourcePoint" />
            <mxPoint x="100" y="520" as="targetPoint" />
          </mxGeometry>
        </mxCell>
        <mxCell id="dTek0zVRktRmmqcboNKo-33" value="1" style="endArrow=open;html=1;endSize=12;startArrow=diamondThin;startSize=14;startFill=0;align=left;verticalAlign=bottom;rounded=0;entryX=1;entryY=0.5;entryDx=0;entryDy=0;exitX=0;exitY=0.192;exitDx=0;exitDy=0;exitPerimeter=0;" edge="1" parent="1" source="dTek0zVRktRmmqcboNKo-18" target="dTek0zVRktRmmqcboNKo-22">
          <mxGeometry x="-1" y="3" relative="1" as="geometry">
            <mxPoint x="200" y="780" as="sourcePoint" />
            <mxPoint x="330" y="790" as="targetPoint" />
          </mxGeometry>
        </mxCell>
        <mxCell id="dTek0zVRktRmmqcboNKo-34" value="Factory Metod" style="shape=umlFrame;whiteSpace=wrap;html=1;pointerEvents=0;" vertex="1" parent="1">
          <mxGeometry x="-40" y="320" width="880" height="480" as="geometry" />
        </mxCell>
        <mxCell id="dTek0zVRktRmmqcboNKo-39" value="&lt;i&gt;Creator&lt;/i&gt;&lt;br&gt;" style="swimlane;fontStyle=1;align=center;verticalAlign=top;childLayout=stackLayout;horizontal=1;startSize=26;horizontalStack=0;resizeParent=1;resizeParentMax=0;resizeLast=0;collapsible=1;marginBottom=0;whiteSpace=wrap;html=1;" vertex="1" parent="1">
          <mxGeometry x="330" y="940" width="160" height="80" as="geometry" />
        </mxCell>
        <mxCell id="dTek0zVRktRmmqcboNKo-41" value="" style="line;strokeWidth=1;fillColor=none;align=left;verticalAlign=middle;spacingTop=-1;spacingLeft=3;spacingRight=3;rotatable=0;labelPosition=right;points=[];portConstraint=eastwest;strokeColor=inherit;" vertex="1" parent="dTek0zVRktRmmqcboNKo-39">
          <mxGeometry y="26" width="160" height="8" as="geometry" />
        </mxCell>
        <mxCell id="dTek0zVRktRmmqcboNKo-42" value="&lt;i&gt;+ FactoryMethod()&lt;br&gt;+ AnOperation&lt;/i&gt;" style="text;strokeColor=none;fillColor=none;align=left;verticalAlign=top;spacingLeft=4;spacingRight=4;overflow=hidden;rotatable=0;points=[[0,0.5],[1,0.5]];portConstraint=eastwest;whiteSpace=wrap;html=1;" vertex="1" parent="dTek0zVRktRmmqcboNKo-39">
          <mxGeometry y="34" width="160" height="46" as="geometry" />
        </mxCell>
        <mxCell id="dTek0zVRktRmmqcboNKo-47" value="&lt;i&gt;Product&lt;/i&gt;" style="html=1;whiteSpace=wrap;" vertex="1" parent="1">
          <mxGeometry x="45" y="955" width="110" height="50" as="geometry" />
        </mxCell>
        <mxCell id="dTek0zVRktRmmqcboNKo-48" value="ConcreteProduct" style="html=1;whiteSpace=wrap;" vertex="1" parent="1">
          <mxGeometry x="45" y="1120" width="110" height="50" as="geometry" />
        </mxCell>
        <mxCell id="dTek0zVRktRmmqcboNKo-49" value="ConcreteCreator&lt;br&gt;" style="swimlane;fontStyle=1;align=center;verticalAlign=top;childLayout=stackLayout;horizontal=1;startSize=26;horizontalStack=0;resizeParent=1;resizeParentMax=0;resizeLast=0;collapsible=1;marginBottom=0;whiteSpace=wrap;html=1;" vertex="1" parent="1">
          <mxGeometry x="320" y="1102" width="160" height="60" as="geometry" />
        </mxCell>
        <mxCell id="dTek0zVRktRmmqcboNKo-51" value="" style="line;strokeWidth=1;fillColor=none;align=left;verticalAlign=middle;spacingTop=-1;spacingLeft=3;spacingRight=3;rotatable=0;labelPosition=right;points=[];portConstraint=eastwest;strokeColor=inherit;" vertex="1" parent="dTek0zVRktRmmqcboNKo-49">
          <mxGeometry y="26" width="160" height="8" as="geometry" />
        </mxCell>
        <mxCell id="dTek0zVRktRmmqcboNKo-52" value="+ FactoryMethod()" style="text;strokeColor=none;fillColor=none;align=left;verticalAlign=top;spacingLeft=4;spacingRight=4;overflow=hidden;rotatable=0;points=[[0,0.5],[1,0.5]];portConstraint=eastwest;whiteSpace=wrap;html=1;" vertex="1" parent="dTek0zVRktRmmqcboNKo-49">
          <mxGeometry y="34" width="160" height="26" as="geometry" />
        </mxCell>
        <mxCell id="dTek0zVRktRmmqcboNKo-59" value="" style="edgeStyle=none;rounded=0;orthogonalLoop=1;jettySize=auto;html=1;" edge="1" parent="1" source="dTek0zVRktRmmqcboNKo-53" target="dTek0zVRktRmmqcboNKo-42">
          <mxGeometry relative="1" as="geometry" />
        </mxCell>
        <mxCell id="dTek0zVRktRmmqcboNKo-53" value="product = FactoryMethod();" style="html=1;whiteSpace=wrap;" vertex="1" parent="1">
          <mxGeometry x="580" y="974" width="110" height="50" as="geometry" />
        </mxCell>
        <mxCell id="dTek0zVRktRmmqcboNKo-54" value="return new ConcreteProduct();" style="html=1;whiteSpace=wrap;" vertex="1" parent="1">
          <mxGeometry x="580" y="1112" width="110" height="50" as="geometry" />
        </mxCell>
        <mxCell id="dTek0zVRktRmmqcboNKo-55" value="Extends" style="endArrow=block;endSize=16;endFill=0;html=1;rounded=0;exitX=0.5;exitY=0;exitDx=0;exitDy=0;" edge="1" parent="1" source="dTek0zVRktRmmqcboNKo-49">
          <mxGeometry x="0.5417" y="-1" width="160" relative="1" as="geometry">
            <mxPoint x="490" y="1150" as="sourcePoint" />
            <mxPoint x="400" y="1030" as="targetPoint" />
            <mxPoint as="offset" />
          </mxGeometry>
        </mxCell>
        <mxCell id="dTek0zVRktRmmqcboNKo-56" value="" style="endArrow=block;dashed=1;endFill=0;endSize=12;html=1;rounded=0;exitX=1;exitY=0.5;exitDx=0;exitDy=0;entryX=0;entryY=0.5;entryDx=0;entryDy=0;" edge="1" parent="1" source="dTek0zVRktRmmqcboNKo-42" target="dTek0zVRktRmmqcboNKo-53">
          <mxGeometry width="160" relative="1" as="geometry">
            <mxPoint x="490" y="1150" as="sourcePoint" />
            <mxPoint x="570" y="1000" as="targetPoint" />
          </mxGeometry>
        </mxCell>
        <mxCell id="dTek0zVRktRmmqcboNKo-57" value="" style="endArrow=block;dashed=1;endFill=0;endSize=12;html=1;rounded=0;exitX=1.017;exitY=-0.051;exitDx=0;exitDy=0;exitPerimeter=0;entryX=0;entryY=0.5;entryDx=0;entryDy=0;" edge="1" parent="1" source="dTek0zVRktRmmqcboNKo-52" target="dTek0zVRktRmmqcboNKo-54">
          <mxGeometry width="160" relative="1" as="geometry">
            <mxPoint x="490" y="1150" as="sourcePoint" />
            <mxPoint x="580" y="1150" as="targetPoint" />
          </mxGeometry>
        </mxCell>
        <mxCell id="dTek0zVRktRmmqcboNKo-60" value="1" style="endArrow=open;html=1;endSize=12;startArrow=diamondThin;startSize=14;startFill=0;align=left;verticalAlign=bottom;rounded=0;exitX=-0.021;exitY=0.154;exitDx=0;exitDy=0;exitPerimeter=0;" edge="1" parent="1" source="dTek0zVRktRmmqcboNKo-52">
          <mxGeometry x="-1" y="3" relative="1" as="geometry">
            <mxPoint x="270" y="1160" as="sourcePoint" />
            <mxPoint x="160" y="1140" as="targetPoint" />
          </mxGeometry>
        </mxCell>
        <mxCell id="dTek0zVRktRmmqcboNKo-62" value="Factory General Method" style="shape=umlFrame;whiteSpace=wrap;html=1;pointerEvents=0;" vertex="1" parent="1">
          <mxGeometry x="-30" y="910" width="830" height="310" as="geometry" />
        </mxCell>
        <mxCell id="dTek0zVRktRmmqcboNKo-63" value="Extends" style="endArrow=block;endSize=16;endFill=0;html=1;rounded=0;entryX=0.5;entryY=1;entryDx=0;entryDy=0;exitX=0.5;exitY=0;exitDx=0;exitDy=0;" edge="1" parent="1" source="dTek0zVRktRmmqcboNKo-48" target="dTek0zVRktRmmqcboNKo-47">
          <mxGeometry width="160" relative="1" as="geometry">
            <mxPoint x="270" y="1050" as="sourcePoint" />
            <mxPoint x="430" y="1050" as="targetPoint" />
          </mxGeometry>
        </mxCell>
      </root>
    </mxGraphModel>
  </diagram>
</mxfile>
